<svg width="135" height="76" viewBox="0 0 135 76" fill="none" xmlns="http://www.w3.org/2000/svg">
<path d="M5.43198 6.76539C4.82128 6.15469 6.14119 7.53452 6.2301 7.6522C7.4217 9.22932 7.94802 11.5097 8.6023 13.3499C10.1728 17.7669 10.6317 22.8543 10.0212 27.4944C9.53767 31.1691 8.96667 34.3575 6.2301 37.0941C4.84982 38.4743 2.34751 39.741 1.92911 36.9167C1.41715 33.461 4.24656 28.7845 6.47397 26.3416C9.74474 22.7543 14.1911 21.0558 18.8005 20.1339C22.5895 19.3762 26.1031 18.7665 28.8879 15.8551C31.0651 13.5789 30.8562 9.33827 30.4842 6.45501C30.2358 4.52989 29.8372 3.20161 27.9789 2.37572C25.6258 1.32989 25.468 6.08759 25.4072 7.60786C24.9351 19.4116 27.879 31.6527 25.0747 43.3017C24.6917 44.8925 23.4757 51.6997 20.5963 49.6201C16.9564 46.9913 20.1897 41.8698 22.0152 39.2889C24.5998 35.6348 28.2808 32.3919 31.77 29.6006C33.132 28.511 36.7183 26.0223 38.5541 25.9203C40.3846 25.8186 41.5504 27.6895 42.1456 29.135C44.0197 33.6864 43.7416 37.8145 39.9508 41.1955C37.5039 43.3779 34.3471 41.2151 34.6521 38.2026C35.0435 34.3378 37.0632 30.7084 40.239 28.4034C42.9505 26.4353 48.092 23.31 49.9051 27.7605C51.2276 31.0065 51.0792 36.9083 50.0382 40.1979C49.9759 40.3946 48.7098 43.1949 48.5306 42.7918C47.7866 41.1177 48.3539 39.1349 48.841 37.4931C49.4636 35.3948 53.7898 22.0785 57.709 27.1175C59.5642 29.5027 59.3053 32.6497 59.3053 35.4978C59.3053 36.9852 59.3177 38.4027 58.9062 39.8431C58.6096 40.8813 58.6011 37.8464 58.6845 37.4931C59.7489 32.9851 62.3469 24.7975 68.8827 27.3392C71.8065 28.4762 71.459 30.8357 71.8757 33.5025C72.3331 36.4302 72.4045 39.825 70.4568 42.2597C67.9746 45.3624 62.9224 47.9045 63.7836 41.9715C64.2047 39.0709 65.5336 36.1853 67.8851 34.345C70.7363 32.1135 71.8259 34.9942 72.2526 37.737C73.1018 43.1962 72.7812 49.5572 72.3856 55.0518C72.0191 60.1419 70.6054 64.6963 68.0846 69.1076C66.8089 71.3401 65.3461 73.8681 62.4977 74.1846C59.2214 74.5486 59.9428 69.9183 60.5468 67.977C62.2961 62.3542 65.8821 59.9479 70.3903 56.6481C75.0954 53.2041 80.044 50.2894 84.8452 46.9819C88.7677 44.2797 94.153 41.6295 96.0189 37.0497C99.0037 29.7235 100.492 21.9887 99.81 14.0815C99.5498 11.0638 99.1594 8.24695 96.1963 6.76539C92.9429 5.1387 90.3715 11.3437 89.7226 13.6381C88.3437 18.5134 87.2779 25.0034 88.2815 30.0218C88.6097 31.6624 91.296 36.9439 93.4028 33.8794C95.6526 30.607 92.8847 25.0895 88.7471 26.009C85.5799 26.7128 81.8538 29.7701 81.6749 33.17C81.4214 37.9849 82.8361 43.7894 88.858 43.7894C91.5039 43.7894 98.6575 43.0116 99.3001 39.7988C99.6302 38.1483 99.8187 34.0048 100.01 38.2026C100.184 42.0328 107.507 43.4768 110.385 42.038C112.455 41.0029 114.562 37.7026 114.597 35.4091C114.669 30.8526 112.614 29.5064 108.478 28.8024C104.703 28.1598 103.13 32.5713 103.269 35.6973C103.541 41.8388 110.142 40.9653 113.134 37.2936C113.707 36.5908 115.454 32.8701 114.287 31.9949C114.058 31.8233 113.975 34.9419 114.021 35.2539C114.236 36.7066 115.677 37.6314 117.036 37.8035C120.932 38.2966 125.562 37.6585 129.363 36.695C130.463 36.4162 133.076 36.0684 132.733 35.8969" stroke="black" stroke-width="3" stroke-linecap="round"/>
</svg>
